<?xml version="1.0" standalone="no"?>
<!DOCTYPE svg PUBLIC "-//W3C//DTD SVG 20010904//EN"
 "http://www.w3.org/TR/2001/REC-SVG-20010904/DTD/svg10.dtd">
<svg version="1.0" xmlns="http://www.w3.org/2000/svg"
 width="238.000000pt" height="212.000000pt" viewBox="0 0 238.000000 212.000000"
 preserveAspectRatio="xMidYMid meet">

<g transform="translate(0.000000,212.000000) scale(0.100000,-0.100000)"
fill="#000000" stroke="none">
<path d="M1140 1320 c0 -424 -3 -770 -6 -770 -3 0 -36 18 -72 39 -61 36 -155
71 -189 71 -7 0 6 -24 30 -53 92 -113 184 -293 246 -482 l38 -117 37 112 c71
214 148 369 241 484 26 32 40 56 32 56 -34 0 -126 -35 -185 -71 -35 -21 -66
-39 -68 -39 -2 0 -4 346 -4 770 l0 770 -50 0 -50 0 0 -770z"/>
</g>
</svg>
